<svg xmlns="http://www.w3.org/2000/svg" viewBox="0 0 400 400" width="400" height="400" role="img" aria-label="帆布托特包">
  <defs>
    <radialGradient id="tbg" cx="50%" cy="42%" r="72%">
      <stop offset="0%" stop-color="#f7f8fa"/><stop offset="100%" stop-color="#e6e9ee"/>
    </radialGradient>
    <linearGradient id="tbody" x1="0" y1="0" x2="0" y2="1">
      <stop offset="0%" stop-color="#e9e0cb"/><stop offset="100%" stop-color="#cdbf9f"/>
    </linearGradient>
  </defs>
  <rect width="400" height="400" fill="url(#tbg)"/>
  <ellipse cx="200" cy="330" rx="118" ry="18" fill="#000" opacity="0.10"/>
  <path d="M150 120 q0 -56 50 -56 q50 0 50 56" fill="none" stroke="#8a7a55" stroke-width="12" stroke-linecap="round"/>
  <path d="M112 118 h176 l-12 196 q-2 18 -20 18 h-112 q-18 0 -20 -18 z" fill="url(#tbody)"/>
  <path d="M112 118 h176 l-2 30 h-172 z" fill="#000" opacity="0.05"/>
  <rect x="150" y="190" width="100" height="40" rx="6" fill="#3f4a5a" opacity="0.92"/>
  <rect x="160" y="202" width="80" height="6" rx="3" fill="#f7f8fa" opacity="0.75"/>
  <rect x="160" y="214" width="52" height="6" rx="3" fill="#f7f8fa" opacity="0.55"/>
  <path d="M126 140 l-8 168" fill="none" stroke="#ffffff" stroke-width="6" opacity="0.25"/>
</svg>
